<?xml version="1.0" encoding="UTF-8"?>
<svg id="_레이어_2" data-name="레이어 2" xmlns="http://www.w3.org/2000/svg" viewBox="0 0 588.37 242.27">
  <defs>
    <style>
      .cls-1 {
        stroke: #0583d2;
      }

      .cls-1, .cls-2, .cls-3, .cls-4, .cls-5 {
        fill: none;
      }

      .cls-1, .cls-2, .cls-3, .cls-5 {
        stroke-miterlimit: 10;
      }

      .cls-2 {
        stroke: #16558f;
      }

      .cls-6 {
        fill: #505050;
      }

      .cls-6, .cls-7, .cls-8, .cls-9, .cls-4, .cls-10, .cls-11 {
        stroke-width: 0px;
      }

      .cls-7 {
        fill: #16558f;
      }

      .cls-8 {
        fill: #0071bc;
      }

      .cls-9 {
        fill: #0583d2;
      }

      .cls-3 {
        stroke: #0d6cb0;
      }

      .cls-10 {
        fill: #b8e3ff;
      }

      .cls-11 {
        fill: #999;
      }

      .cls-5 {
        stroke: #5eb3e8;
      }
    </style>
  </defs>
  <g id="_레이어_1-2" data-name="레이어 1">
    <g id="_레이어_2-2" data-name="레이어 2">
      <g id="_레이어_1-2" data-name="레이어 1-2">
        <path class="cls-2" d="M77,99.9l-23-15.35c1.79-9.03,3.58-18.06,5.37-27.09l27.1-5.39,15.34,23"/>
        <path class="cls-3" d="M101.81,75l11-24.32-26.34,1.39-18.26-19.47-8.84,24.86-25,9.42,19.63,17.67c-.28,8.89-.56,17.78-.85,26.68l23.85-11.33"/>
        <line class="cls-3" x1="77.25" y1="118.37" x2="76.95" y2="99.9"/>
        <line class="cls-3" x1="37.04" y1="91.9" x2="53.98" y2="84.55"/>
        <line class="cls-3" x1="46.1" y1="44.61" x2="59.37" y2="57.46"/>
        <line class="cls-3" x1="93.26" y1="34.89" x2="86.47" y2="52.07"/>
        <line class="cls-3" x1="120.28" y1="74.74" x2="101.81" y2="75.04"/>
        <path class="cls-1" d="M77.25,118.37l-24.12-7.14-16.13-19.33-2.64-25,11.74-22.29,22.11-12,25.05,2.29,19.55,15.83,7.47,24"/>
        <path class="cls-5" d="M120.28,74.74l13.28-16.87-20.75-7.15c.56-7.14,1.12-14.28,1.67-21.41l-21.22,5.58-10.51-18.72c-4.85,5.47-9.69,10.94-14.54,16.43l-19.14-9.73-3,21.74-21.29,2.54,9.62,19.73-16.32,14,18.92,11.02c-1.94,6.89-3.88,13.78-5.81,20.67l21.9-1.34,6.65,20.42,17.47-13.28"/>
        <circle class="cls-10" cx="136.11" cy="75.04" r="3.16"/>
        <circle class="cls-10" cx="126.14" cy="42.17" r="3.16"/>
        <circle class="cls-10" cx="99.59" cy="20.39" r="3.16"/>
        <circle class="cls-10" cx="65.41" cy="17.02" r="3.16"/>
        <circle class="cls-10" cx="35.12" cy="33.21" r="3.16"/>
        <circle class="cls-10" cx="18.93" cy="63.5" r="3.16"/>
        <circle class="cls-10" cx="22.3" cy="97.68" r="3.16"/>
        <circle class="cls-10" cx="44.09" cy="124.22" r="3.16"/>
        <circle class="cls-10" cx="76.95" cy="134.19" r="3.16"/>
        <circle class="cls-10" cx="133.56" cy="57.87" r="3.79"/>
        <circle class="cls-10" cx="114.48" cy="29.31" r="3.79"/>
        <circle class="cls-10" cx="82.75" cy="16.17" r="3.79"/>
        <circle class="cls-10" cx="49.07" cy="22.87" r="3.79"/>
        <circle class="cls-10" cx="24.78" cy="47.15" r="3.79"/>
        <circle class="cls-10" cx="18.08" cy="80.84" r="3.79"/>
        <circle class="cls-10" cx="31.23" cy="112.57" r="3.79"/>
        <circle class="cls-10" cx="59.78" cy="131.65" r="3.79"/>
        <circle class="cls-9" cx="112.81" cy="50.72" r="5.69"/>
        <circle class="cls-9" cx="68.21" cy="32.6" r="5.69"/>
        <circle class="cls-9" cx="34.4" cy="66.88" r="5.69"/>
        <circle class="cls-9" cx="53.13" cy="111.23" r="5.69"/>
        <circle class="cls-9" cx="120.28" cy="74.74" r="5.06"/>
        <circle class="cls-9" cx="93.26" cy="34.89" r="5.06"/>
        <circle class="cls-9" cx="46.1" cy="44.61" r="5.06"/>
        <circle class="cls-9" cx="37.04" cy="91.9" r="5.06"/>
        <circle class="cls-9" cx="77.25" cy="118.37" r="5.06"/>
        <circle class="cls-7" cx="101.81" cy="75.04" r="6.32"/>
        <circle class="cls-7" cx="86.47" cy="52.07" r="6.32"/>
        <circle class="cls-7" cx="59.37" cy="57.46" r="6.32"/>
        <circle class="cls-7" cx="53.98" cy="84.55" r="6.32"/>
        <circle class="cls-7" cx="76.95" cy="99.9" r="6.32"/>
        <path class="cls-8" d="M92.64,90.66h43.77c23.68,0,32.49,12.3,32.49,25.25,0,11.58-6.28,17.42-12.88,20,7.59,3,16.09,9.95,16.09,23.41,0,18.05-13.29,29.9-36.37,29.9h-43.1v-98.56ZM130.23,128.81c8.6,0,12.29-2.84,12.29-9.94s-4.56-10-11.68-10h-11.84v20l11.23-.06ZM119,171.17h12.12c7.24,0,13.1-3.28,13.1-12.28,0-8.21-4.52-12.4-14.23-12.4h-10.99v24.68Z"/>
        <path class="cls-8" d="M186.39,90.66h38.09c32,0,47.5,18.66,47.5,47.58,0,31.61-17.12,51-48,51h-37.59v-98.58ZM213.68,169.66h9c14.3,0,21-9.6,21-31.06,0-18.56-5.59-28.27-20.72-28.27h-9.31l.03,59.33Z"/>
        <path class="cls-8" d="M314.39,90.66v98.59h-27.2v-98.59h27.2Z"/>
        <path class="cls-6" d="M333.7,90.66h27.19v78h41.69l-2.76,20.59h-66.12v-98.59Z"/>
        <path class="cls-6" d="M480.27,167.57c0,6.15.29,16.67,1.06,21.68h-23c-.68-2.62-1.13-5.3-1.36-8-4.38,6.27-11.64,9.49-21.25,9.49-17.31,0-25.09-10.82-25.09-23.35,0-13.31,8.38-25.17,35.72-25.17h8.21v-5.4c0-5.35-1.77-8.61-7.82-8.61-6.59,0-8.06,3.61-8.54,8.46h-24.76c.72-12,8.33-24.56,33.92-24.56,22.55,0,32.91,8.12,32.91,25.83v29.63ZM455.06,155.92h-6.63c-9.7,0-11.75,4.49-11.75,9s2.53,7.83,8.07,7.83c8.71,0,10.31-6,10.31-14.88v-1.95Z"/>
        <path class="cls-6" d="M496.17,85.27h26.37v35c3.32-4.31,9.18-8.16,19.44-8.16,18.83,0,28.79,15.48,28.79,36.89,0,24.59-10.79,41.74-31.57,41.74-10.5,0-14.86-4.11-17.2-7.51-.15,1.9-.29,3.91-.58,6h-25.54c.14-5.18.29-15.28.29-21.51v-82.45ZM544,150.43c0-12.83-3.27-19.16-11.41-19.16-8.91,0-11.16,6.33-11.16,20.06s2.67,20.71,11,20.71c7.93-.04,11.57-7.32,11.57-21.61Z"/>
        <path class="cls-8" d="M92.64,203.06h7.42c4.23,0,6.55,2.34,6.55,6.18,0,3.07-1.46,4.56-2.81,5.07,1.72.7,3.52,2.28,3.52,5.94,0,4.63-3,7.16-7.35,7.16h-7.33v-24.35ZM99,212.78c2.71,0,3.42-1.05,3.42-3.15s-1.12-3.11-3.27-3.11h-2.24v6.26h2.09ZM96.91,224h2.6c2.18,0,3.43-1.11,3.43-3.84,0-2.52-1-4-3.9-4h-2.13v7.84Z"/>
        <path class="cls-11" d="M126.2,203.06v24.35h-4.37v-24.35h4.37Z"/>
        <path class="cls-11" d="M156.47,227.41h-3.33c-.1-.69-.17-1.38-.2-2.07-1.09,1.93-2.78,2.49-4.84,2.49-5.09,0-6.93-4.53-6.93-12.44,0-8.89,3-12.72,8.23-12.72,6.6,0,7,5.66,7,7.1h-4.31c-.07-1-.28-3.41-2.86-3.41-2.81,0-3.59,3.75-3.59,9,0,5.68.67,8.8,3.45,8.8,2.31,0,3-1.78,3-5.36v-1.37h-3.27v-3.72h7.61l.04,13.7Z"/>
        <path class="cls-8" d="M186.41,202.72h6.34c6.27,0,8.7,4,8.7,11.68,0,8.22-2.33,12.68-9,12.68h-6l-.04-24.36ZM190.81,223.51h1.55c3.41,0,4.58-2.56,4.58-9.09,0-5.61-1-8.07-4.54-8.07h-1.59v17.16Z"/>
        <path class="cls-11" d="M216.07,221l-1.21,6.13h-4.36l5.64-24.36h5.66l5.7,24.36h-4.58l-1.21-6.13h-5.64ZM220.93,217.21c-.91-4.66-1.63-8.07-2-10.39h-.1c-.3,2.24-1.07,5.9-2,10.39h4.1Z"/>
        <path class="cls-11" d="M238.9,206.54h-5.21v-3.82h14.78v3.82h-5.2v20.54h-4.37v-20.54Z"/>
        <path class="cls-11" d="M260.32,221l-1.21,6.13h-4.37l5.64-24.36h5.62l5.7,24.36h-4.57l-1.13-6.13h-5.68ZM265.18,217.21c-.91-4.66-1.64-8.07-2-10.39h-.11c-.29,2.24-1.06,5.9-2,10.39h4.11Z"/>
        <path class="cls-8" d="M291.55,202.72v24.36h-4.37v-24.36h4.37Z"/>
        <path class="cls-11" d="M305.22,227.08v-24.36h4.95c5,13.46,6,16,6.3,17.22h0c-.2-2.92-.21-6.51-.21-10.5v-6.72h3.89v24.36h-4.75c-5.2-14.35-6.12-16.94-6.44-18.06h0c.18,3,.18,6.59.18,10.95v7.11h-3.92Z"/>
        <path class="cls-11" d="M337.08,206.54h-5.2v-3.82h14.77v3.82h-5.2v20.54h-4.37v-20.54Z"/>
        <path class="cls-11" d="M370.51,216.25h-7.82v7.07h8.78l-.54,3.76h-12.54v-24.36h12.49v3.82h-8.19v5.93h7.82v3.78Z"/>
        <path class="cls-11" d="M383.48,202.72h4.37v20.63h8.33l-.42,3.73h-12.28v-24.36Z"/>
        <path class="cls-11" d="M407.71,202.72h4.37v20.63h8.33l-.42,3.73h-12.28v-24.36Z"/>
        <path class="cls-11" d="M436.3,202.72v24.36h-4.36v-24.36h4.36Z"/>
        <path class="cls-11" d="M464.41,227.08h-3.32c-.1-.75-.17-1.29-.21-2.08-1.08,1.93-2.78,2.5-4.83,2.5-5.09,0-6.93-4.53-6.93-12.45,0-8.89,3-12.72,8.23-12.72,6.6,0,7,5.66,7,7.1h-4.31c-.07-1-.29-3.41-2.86-3.41-2.81,0-3.59,3.75-3.59,9,0,5.68.67,8.8,3.44,8.8,2.32,0,3-1.77,3-5.36v-1.37h-3.23v-3.72h7.61v13.71Z"/>
        <path class="cls-11" d="M489.67,216.25h-7.82v7.07h8.78l-.54,3.76h-12.54v-24.36h12.45v3.82h-8.19v5.93h7.82l.04,3.78Z"/>
        <path class="cls-11" d="M502.64,227.08v-24.36h4.95c5,13.46,6,16,6.3,17.22h0c-.21-2.92-.22-6.51-.22-10.5v-6.72h3.9v24.36h-4.75c-5.21-14.35-6.13-16.94-6.44-18.06h0c.18,3,.18,6.59.18,10.95v7.11h-3.92Z"/>
        <path class="cls-11" d="M545.39,220c-.11,1.23-.58,7.51-7.34,7.51s-7.72-6.09-7.72-12.63c0-7.89,2.32-12.54,8-12.54,6.46,0,7,5.54,7.06,7.49h-4.31c-.07-.83-.12-3.79-2.81-3.79s-3.41,3.35-3.41,8.93c0,4.59.46,8.9,3.29,8.9,2.6,0,2.8-2.94,2.91-3.87h4.33Z"/>
        <path class="cls-11" d="M569.59,216.25h-7.82v7.07h8.78l-.54,3.76h-12.54v-24.36h12.53v3.82h-8.19v5.93h7.82l-.04,3.78Z"/>
        <rect class="cls-4" width="588.37" height="242.27"/>
      </g>
    </g>
    <g>
      <rect class="cls-11" x="250.84" y="31.11" width="12.42" height="46.74"/>
      <polygon class="cls-11" points="317.24 31.11 317.24 40.84 332.87 40.84 332.87 77.85 345.29 77.85 345.29 40.84 360.92 40.84 360.92 31.11 317.24 31.11"/>
      <path class="cls-11" d="M299.94,49.61h-10.38c-2.76,0-4.99-1.14-4.99-4.38s2.24-4.38,4.99-4.38h22.33v-9.73h-23.8c-8.88,0-16.09,5.13-16.09,14.12s7.2,14.12,16.09,14.12h10.68c2.76,0,4.99,1.14,4.99,4.39s-2.24,4.38-4.99,4.38h-25.05v9.74h26.22c8.88,0,16.09-5.12,16.09-14.11s-7.2-14.13-16.09-14.13"/>
      <polygon class="cls-11" points="213.02 31.11 195.45 73.17 178.7 54.48 199.64 31.11 185.46 31.11 165.61 53.3 165.61 31.11 153.19 31.11 153.19 77.85 165.61 77.85 165.61 55.66 185.46 77.85 206.12 77.85 220.35 42.6 230.68 68.51 214.26 68.51 218.16 77.85 247.2 77.85 227.67 31.11 213.02 31.11"/>
    </g>
  </g>
</svg>