<?xml version="1.0" encoding="UTF-8" standalone="no"?> <svg xmlns:dc="http://purl.org/dc/elements/1.1/" xmlns:cc="http://creativecommons.org/ns#" xmlns:rdf="http://www.w3.org/1999/02/22-rdf-syntax-ns#" xmlns:svg="http://www.w3.org/2000/svg" xmlns="http://www.w3.org/2000/svg" xmlns:sodipodi="http://sodipodi.sourceforge.net/DTD/sodipodi-0.dtd" xmlns:inkscape="http://www.inkscape.org/namespaces/inkscape" width="96.109756mm" height="28.48793mm" viewBox="0 0 96.109756 28.48793" version="1.1" id="svg1348" inkscape:version="1.0.2-2 (e86c870879, 2021-01-15)" sodipodi:docname="devstack_logo_blue.svg"><defs id="defs1342"></defs><metadata id="metadata1345"></metadata><g inkscape:label="레이어 1" inkscape:groupmode="layer" id="layer1" transform="translate(-82.724886,-172.47627)"><path d="M 120.30983,200.53495 H 83.077664 v -18.46086 h 17.146766" style="fill:none;stroke:#428bca;stroke-width:0.705556;stroke-linecap:butt;stroke-linejoin:miter;stroke-miterlimit:10;stroke-dasharray:none;stroke-opacity:1" id="path1015"></path><path d="M 177.00661,190.63388 H 121.99833 V 172.9008 h 55.00828 z" style="fill:#428bca;fill-opacity:1;fill-rule:nonzero;stroke:none;stroke-width:0.352778" id="path1017"></path><path d="m 127.01377,192.05417 h 1.33844 v 6.98464 h -1.33844 z" style="fill:#428bca;fill-opacity:1;fill-rule:nonzero;stroke:none;stroke-width:0.352778" id="path1071"></path><path d="m 121.57418,184.91663 3.53413,-0.34325 c 0.21202,1.18674 0.64346,2.05669 1.29469,2.61373 0.64911,0.55562 1.52682,0.83432 2.63102,0.83432 1.16981,0 2.0507,-0.24801 2.64477,-0.74295 0.59232,-0.49424 0.88865,-1.0728 0.88865,-1.73567 0,-0.42545 -0.12453,-0.78705 -0.37359,-1.0855 -0.24977,-0.2988 -0.68545,-0.55844 -1.30775,-0.77893 -0.42474,-0.14746 -1.39453,-0.40957 -2.90759,-0.78528 -1.94628,-0.4826 -3.31223,-1.07598 -4.09787,-1.77941 -1.10384,-0.98955 -1.65594,-2.19605 -1.65594,-3.61915 0,-0.91652 0.25929,-1.77306 0.77858,-2.57034 0.51894,-0.79728 1.26824,-1.40441 2.24579,-1.82174 0.97719,-0.41699 2.15723,-0.62619 3.53942,-0.62619 2.25813,0 3.95675,0.4953 5.09834,1.48555 1.14088,0.98884 1.73955,2.31034 1.79705,3.96134 l -3.63185,0.16016 c -0.15522,-0.92463 -0.48895,-1.58926 -0.99977,-1.99354 -0.51153,-0.40499 -1.27811,-0.60749 -2.30046,-0.60749 -1.05516,0 -1.88101,0.21767 -2.47862,0.65053 -0.38382,0.27869 -0.57609,0.65017 -0.57609,1.11619 0,0.42545 0.17886,0.78951 0.53975,1.09149 0.45826,0.38488 1.57022,0.78528 3.33693,1.20262 1.76742,0.41734 3.07375,0.84878 3.92042,1.29469 0.84596,0.44521 1.50848,1.05481 1.9879,1.8281 0.47766,0.77293 0.7172,1.72755 0.7172,2.86455 0,1.03011 -0.28646,1.99567 -0.85937,2.8949 -0.57256,0.90029 -1.38218,1.5688 -2.42887,2.00624 -1.04705,0.43815 -2.35127,0.65688 -3.91407,0.65688 -2.27295,0 -4.01991,-0.52599 -5.23875,-1.57657 -1.2192,-1.05092 -1.94698,-2.58304 -2.18405,-4.59528" style="fill:#ffffff;fill-opacity:1;fill-rule:nonzero;stroke:none;stroke-width:0.352778" id="path1021"></path><path d="m 143.31306,180.38167 v 2.20345 h -1.88842 v 4.21005 c 0,0.85231 0.018,1.34867 0.0543,1.48943 0.036,0.14111 0.11818,0.25788 0.24553,0.34925 0.12841,0.0917 0.28364,0.13793 0.46708,0.13793 0.25612,0 0.62689,-0.0882 1.1116,-0.26564 l 0.23636,2.14454 c -0.64311,0.27516 -1.37054,0.4131 -2.18369,0.4131 -0.49848,0 -0.94791,-0.084 -1.34726,-0.25082 -0.4004,-0.16722 -0.69391,-0.38383 -0.88124,-0.64947 -0.18662,-0.26564 -0.31609,-0.62441 -0.38841,-1.07738 -0.0589,-0.32103 -0.0889,-0.97014 -0.0889,-1.94733 v -4.55366 h -1.26823 v -2.20345 h 1.26823 v -3.689 h 2.7746 v 3.689 z" style="fill:#ffffff;fill-opacity:1;fill-rule:nonzero;stroke:none;stroke-width:0.352778" id="path1025"></path><path d="m 151.33565,185.81148 c -0.35419,0.11783 -0.9144,0.25894 -1.68204,0.42227 -0.76694,0.1644 -1.26895,0.32527 -1.5046,0.48296 -0.3616,0.25506 -0.54116,0.57961 -0.54116,0.97261 0,0.38735 0.14428,0.72213 0.43286,1.0033 0.28857,0.28257 0.65546,0.42333 1.10102,0.42333 0.49882,0 0.97472,-0.16404 1.42663,-0.49142 0.33443,-0.24941 0.55421,-0.55421 0.65899,-0.91511 0.0727,-0.23636 0.1083,-0.68509 0.1083,-1.34725 z m -3.69782,-2.24261 -2.50895,-0.45296 c 0.28187,-1.00965 0.76764,-1.75754 1.45591,-2.24226 0.68827,-0.48542 1.71168,-0.72813 3.06882,-0.72813 1.23366,0 2.15123,0.14569 2.75448,0.43779 0.6029,0.29175 1.02765,0.66217 1.27388,1.11125 0.24624,0.44944 0.36901,1.27353 0.36901,2.47403 l -0.0296,3.22616 c 0,0.91792 0.0441,1.5949 0.13299,2.03094 0.0879,0.43638 0.2533,0.90381 0.49636,1.40194 h -2.73438 c -0.0723,-0.1838 -0.16051,-0.45544 -0.26529,-0.81668 -0.0466,-0.16334 -0.079,-0.272 -0.0991,-0.32421 -0.47166,0.45861 -0.97684,0.80328 -1.51447,1.03258 -0.53799,0.22966 -1.11125,0.34432 -1.72156,0.34432 -1.07491,0 -1.92334,-0.29175 -2.54211,-0.8756 -0.62019,-0.58349 -0.92993,-1.3215 -0.92993,-2.21297 0,-0.5895 0.14041,-1.11619 0.42334,-1.57833 0.28116,-0.46285 0.67592,-0.81668 1.18462,-1.06257 0.50871,-0.24588 1.24108,-0.46073 2.19887,-0.64452 1.29187,-0.24236 2.18652,-0.46849 2.68499,-0.67875 v -0.27516 c 0,-0.53129 -0.13088,-0.91017 -0.39335,-1.13595 -0.26176,-0.22683 -0.75741,-0.33972 -1.48519,-0.33972 -0.49177,0 -0.8756,0.0967 -1.15076,0.29033 -0.27517,0.19403 -0.49883,0.53305 -0.66852,1.01847" style="fill:#ffffff;fill-opacity:1;fill-rule:nonzero;stroke:none;stroke-width:0.352778" id="path1029"></path><path d="m 165.54359,183.47038 -2.72521,0.49177 c -0.091,-0.54433 -0.29951,-0.95461 -0.62371,-1.22978 -0.32526,-0.27552 -0.74612,-0.41346 -1.26471,-0.41346 -0.68827,0 -1.23789,0.23813 -1.64712,0.71332 -0.40992,0.4759 -0.61489,1.27071 -0.61489,2.38584 0,1.2393 0.20814,2.11455 0.62442,2.62537 0.41592,0.51188 0.97578,0.76729 1.67746,0.76729 0.52422,0 0.95391,-0.14887 1.28834,-0.44732 0.33408,-0.2981 0.57044,-0.81104 0.70803,-1.53917 l 2.71568,0.46284 c -0.28258,1.24496 -0.82338,2.18652 -1.62348,2.82222 -0.80046,0.63642 -1.8729,0.95427 -3.21663,0.95427 -1.52824,0 -2.74638,-0.4819 -3.65478,-1.44604 -0.9084,-0.96379 -1.36172,-2.29799 -1.36172,-4.00261 0,-1.72509 0.45508,-3.06776 1.36701,-4.02837 0.91193,-0.96097 2.14454,-1.44075 3.69888,-1.44075 1.27176,0 2.28317,0.27376 3.03459,0.82127 0.75071,0.54716 1.2894,1.38183 1.61784,2.50331" style="fill:#ffffff;fill-opacity:1;fill-rule:nonzero;stroke:none;stroke-width:0.352778" id="path1033"></path><path d="m 166.78622,190.76914 v -17.98602 h 3.4477 v 9.54581 l 7.19278,-7.74629 1.08868,3.15736 -4.45382,4.76038 4.77308,8.26876 h -3.71828 l -3.27483,-5.85258 -1.60761,1.68134 v 4.17124 z" style="fill:#ffffff;fill-opacity:1;fill-rule:nonzero;stroke:none;stroke-width:0.352778" id="path1037"></path><path d="m 89.810039,186.53718 v 9.89683 h 2.252839 c 0.84208,0 1.450622,-0.0469 1.824566,-0.14288 0.48895,-0.12171 0.894645,-0.32914 1.217789,-0.62124 0.322792,-0.29139 0.586317,-0.77329 0.790223,-1.44215 0.2032,-0.66993 0.305505,-1.58221 0.305505,-2.73685 0,-1.15535 -0.102305,-2.04188 -0.305505,-2.66101 -0.203906,-0.61806 -0.489656,-1.10066 -0.856545,-1.44744 -0.366889,-0.34643 -0.832203,-0.58068 -1.396294,-0.70274 -0.421217,-0.0956 -1.247423,-0.14252 -2.4765,-0.14252 z m -3.017308,-2.52765 h 5.514622 c 1.243541,0 2.191455,0.0949 2.844094,0.28539 0.8763,0.25824 1.626659,0.7165 2.252133,1.37549 0.625123,0.65969 1.10102,1.46614 1.426987,2.42111 0.326319,0.95426 0.489302,2.13219 0.489302,3.53166 0,1.23049 -0.153105,2.29023 -0.458611,3.17994 -0.373591,1.08796 -0.906991,1.96779 -1.6002,2.64018 -0.523522,0.50977 -1.230136,0.90664 -2.120194,1.19275 -0.666045,0.21096 -1.556456,0.31609 -2.670528,0.31609 h -5.677605 z" style="fill:#428bca;fill-opacity:1;fill-rule:nonzero;stroke:none;stroke-width:0.352778" id="path1041"></path><path d="m 107.23119,192.61191 c -0.0201,-0.82903 -0.23424,-1.45944 -0.64206,-1.89054 -0.40781,-0.43144 -0.90416,-0.6477 -1.48836,-0.6477 -0.62513,0 -1.14124,0.2279 -1.54905,0.68333 -0.40781,0.45474 -0.60819,1.07351 -0.60149,1.85491 z m -0.16298,2.89525 2.85432,0.47836 c -0.36724,1.04705 -0.94685,1.84362 -1.73778,2.39078 -0.79199,0.54645 -1.78294,0.82056 -2.9718,0.82056 -1.88242,0 -3.27554,-0.61524 -4.17865,-1.84503 -0.71403,-0.98531 -1.070332,-2.2292 -1.070332,-3.73133 0,-1.79352 0.468842,-3.19828 1.406522,-4.21463 0.93769,-1.0153 2.12337,-1.52365 3.55741,-1.52365 1.61008,0 2.88079,0.53199 3.81212,1.59491 0.93063,1.06362 1.37619,2.6931 1.33526,4.88844 h -7.17585 c 0.0205,0.84878 0.25153,1.50953 0.69321,1.98226 0.44133,0.47201 0.99201,0.70837 1.651,0.70837 0.44873,0 0.82585,-0.12206 1.13136,-0.36653 0.3055,-0.24554 0.53657,-0.63888 0.69321,-1.18251" style="fill:#428bca;fill-opacity:1;fill-rule:nonzero;stroke:none;stroke-width:0.352778" id="path1045"></path><path d="m 113.97394,198.95228 -4.3628,-10.82569 h 3.00672 l 2.03906,5.5252 0.5909,1.84433 c 0.15663,-0.46849 0.25506,-0.77788 0.29563,-0.92675 0.0952,-0.30586 0.1972,-0.61172 0.30586,-0.91758 l 2.05881,-5.5252 h 2.94569 l -4.30106,10.82569 z" style="fill:#428bca;fill-opacity:1;fill-rule:nonzero;stroke:none;stroke-width:0.352778" id="path1049"></path><path d="m 100.75511,181.9988 c 0,0.67204 0.15452,1.18251 0.46531,1.52929 0.31045,0.34749 0.70556,0.52105 1.18322,0.52105 0.47801,0 0.87136,-0.1725 1.17757,-0.51646 0.30727,-0.34537 0.46002,-0.86184 0.46002,-1.55046 0,-0.68086 -0.14922,-1.18886 -0.44802,-1.52329 -0.29845,-0.33514 -0.69462,-0.50236 -1.18957,-0.50236 -0.49389,0 -0.89253,0.16933 -1.19451,0.508 -0.30268,0.33972 -0.45402,0.85055 -0.45402,1.53423 m -1.236133,0.0402 c 0,-0.60502 0.08996,-1.11266 0.271286,-1.52365 0.135114,-0.30233 0.319617,-0.57397 0.553857,-0.81421 0.23354,-0.24024 0.48895,-0.4184 0.7673,-0.53517 0.37041,-0.15698 0.79763,-0.23459 1.28023,-0.23459 0.87559,0 1.57585,0.27128 2.10114,0.81456 0.52493,0.54257 0.78881,1.29787 0.78881,2.26448 0,0.9592 -0.26105,1.70992 -0.78281,2.25143 -0.52141,0.54151 -1.21814,0.81209 -2.09021,0.81209 -0.88336,0 -1.58644,-0.26917 -2.10749,-0.80786 -0.521058,-0.53975 -0.782113,-1.28199 -0.782113,-2.22708" style="fill:#428bca;fill-opacity:1;fill-rule:nonzero;stroke:none;stroke-width:0.352778" id="path1053"></path><path d="m 107.30319,182.74792 c 0,0.48366 0.096,0.84102 0.28716,1.07174 0.19191,0.23072 0.4258,0.34643 0.70168,0.34643 0.26493,0 0.48471,-0.10584 0.66004,-0.3175 0.17569,-0.21202 0.26388,-0.55986 0.26388,-1.04352 0,-0.45156 -0.0903,-0.78599 -0.27164,-1.00542 -0.18097,-0.21872 -0.40499,-0.32773 -0.6731,-0.32773 -0.27763,0 -0.50835,0.10725 -0.69285,0.32174 -0.18345,0.21554 -0.27517,0.53269 -0.27517,0.95426 m -1.12642,-2.07892 h 1.06151 v 0.63253 c 0.13758,-0.2159 0.32314,-0.39158 0.55915,-0.5267 0.23495,-0.13476 0.49565,-0.20249 0.78282,-0.20249 0.49953,0 0.92286,0.19614 1.27176,0.58773 0.34784,0.39158 0.52282,0.93733 0.52282,1.63618 0,0.71896 -0.17569,1.27776 -0.52776,1.6764 -0.34996,0.39793 -0.77576,0.59725 -1.27529,0.59725 -0.23848,0 -0.45332,-0.0469 -0.64664,-0.14217 -0.19368,-0.0942 -0.39582,-0.25576 -0.6096,-0.48577 v 2.16782 h -1.13877 z" style="fill:#428bca;fill-opacity:1;fill-rule:nonzero;stroke:none;stroke-width:0.352778" id="path1057"></path><path d="m 113.83512,182.45215 c -0.007,-0.32914 -0.0938,-0.58067 -0.25541,-0.75142 -0.16157,-0.17145 -0.35983,-0.25752 -0.59126,-0.25752 -0.24835,0 -0.45437,0.0903 -0.61595,0.27163 -0.16192,0.18098 -0.2413,0.42687 -0.23989,0.73731 z m -0.0649,1.15041 1.13418,0.1905 c -0.14535,0.41628 -0.37536,0.73342 -0.69039,0.95073 -0.31467,0.21732 -0.70873,0.32597 -1.18145,0.32597 -0.74824,0 -1.3021,-0.24412 -1.66088,-0.73378 -0.28363,-0.39087 -0.4258,-0.88582 -0.4258,-1.48272 0,-0.71297 0.18697,-1.27141 0.55951,-1.67534 0.37288,-0.40323 0.84349,-0.60572 1.41393,-0.60572 0.64064,0 1.14512,0.21131 1.51553,0.63359 0.37007,0.42333 0.54681,1.07068 0.53093,1.94345 h -2.85256 c 0.008,0.33761 0.0991,0.60043 0.27552,0.78775 0.17568,0.18803 0.39476,0.28222 0.65617,0.28222 0.17886,0 0.32843,-0.048 0.4505,-0.14605 0.12065,-0.0967 0.21272,-0.254 0.27481,-0.4706" style="fill:#428bca;fill-opacity:1;fill-rule:nonzero;stroke:none;stroke-width:0.352778" id="path1061"></path><path d="m 119.80821,184.97261 h -1.13877 v -2.19604 c 0,-0.46461 -0.025,-0.76518 -0.0734,-0.90135 -0.048,-0.13617 -0.12806,-0.24271 -0.23672,-0.31856 -0.10901,-0.0751 -0.2413,-0.11359 -0.39476,-0.11359 -0.1979,0 -0.37429,0.054 -0.53093,0.16228 -0.15734,0.1083 -0.26423,0.25153 -0.32279,0.42968 -0.0579,0.17851 -0.0875,0.50765 -0.0875,0.98848 v 1.9491 h -1.137 v -4.30354 h 1.05692 v 0.63253 c 0.37536,-0.48648 0.84808,-0.72919 1.41746,-0.72919 0.25189,0 0.48119,0.0448 0.68968,0.13582 0.20744,0.09 0.36513,0.20532 0.47131,0.34608 0.10654,0.14111 0.18169,0.30021 0.22331,0.47836 0.0423,0.1778 0.0632,0.43392 0.0632,0.76518 z" style="fill:#428bca;fill-opacity:1;fill-rule:nonzero;stroke:none;stroke-width:0.352778" id="path1065"></path><path d="m 124.59276,196.07509 c -0.009,-0.3877 -0.10901,-0.68227 -0.29951,-0.88336 -0.19085,-0.20214 -0.42263,-0.30303 -0.69603,-0.30303 -0.2921,0 -0.53375,0.10618 -0.72425,0.31891 -0.19015,0.21343 -0.28434,0.502 -0.28152,0.86748 z m -0.0765,1.3529 1.33456,0.22437 c -0.17145,0.4886 -0.44204,0.86113 -0.81175,1.1176 -0.37077,0.25541 -0.83396,0.38312 -1.38888,0.38312 -0.88054,0 -1.53106,-0.28717 -1.95404,-0.86255 -0.33337,-0.46072 -0.50059,-1.0414 -0.50059,-1.74342 0,-0.83891 0.21943,-1.49543 0.65828,-1.97062 0.43851,-0.47484 0.99272,-0.71191 1.66194,-0.71191 0.75318,0 1.34726,0.24871 1.78259,0.74542 0.43497,0.49707 0.64346,1.25801 0.62406,2.28459 h -3.35421 c 0.009,0.39723 0.11747,0.70626 0.3242,0.92675 0.20602,0.22154 0.46285,0.33126 0.77153,0.33126 0.2099,0 0.38594,-0.0568 0.52881,-0.1711 0.14288,-0.11465 0.25047,-0.29845 0.3235,-0.55351" style="fill:#428bcf;fill-opacity:1;fill-rule:nonzero;stroke:none;stroke-width:0.352778" id="path1069"></path><path d="m 130.7867,196.50883 c 0,0.5013 0.11959,0.88582 0.35772,1.15288 0.23777,0.26705 0.53163,0.40005 0.88194,0.40005 0.3489,0 0.6417,-0.133 0.87842,-0.40005 0.23742,-0.26706 0.35524,-0.65405 0.35524,-1.1617 0,-0.496 -0.11782,-0.877 -0.35524,-1.14406 -0.23672,-0.26776 -0.52952,-0.40075 -0.87842,-0.40075 -0.35031,0 -0.64417,0.13299 -0.88194,0.40075 -0.23813,0.26706 -0.35772,0.65158 -0.35772,1.15288 m -1.37231,-0.0716 c 0,-0.4445 0.10937,-0.87489 0.32915,-1.29152 0.21872,-0.41558 0.53022,-0.73378 0.93204,-0.95286 0.40146,-0.21942 0.85019,-0.32843 1.34584,-0.32843 0.76518,0 1.39277,0.24871 1.88172,0.74577 0.48895,0.49671 0.73413,1.12466 0.73413,1.88419 0,0.76552 -0.24695,1.40017 -0.74154,1.90394 -0.49389,0.50271 -1.11548,0.75494 -1.86514,0.75494 -0.46355,0 -0.90593,-0.10548 -1.32644,-0.31432 -0.42157,-0.21061 -0.74189,-0.51718 -0.96061,-0.92252 -0.21978,-0.40393 -0.32915,-0.89746 -0.32915,-1.47919" style="fill:#428bca;fill-opacity:1;fill-rule:nonzero;stroke:none;stroke-width:0.352778" id="path1075"></path><path d="m 136.97166,196.42219 c 0,0.56938 0.11254,0.98848 0.33831,1.26083 0.22543,0.27234 0.50024,0.40746 0.8248,0.40746 0.31044,0 0.56973,-0.12418 0.77646,-0.37324 0.20602,-0.25048 0.31009,-0.65934 0.31009,-1.22802 0,-0.52987 -0.10724,-0.92393 -0.31961,-1.18181 -0.21308,-0.25647 -0.47696,-0.38488 -0.79093,-0.38488 -0.32738,0 -0.59937,0.1263 -0.81492,0.37889 -0.2166,0.25223 -0.3242,0.62618 -0.3242,1.12077 m -1.32503,-2.44334 h 1.24883 v 0.74366 c 0.16263,-0.25471 0.38135,-0.46073 0.65758,-0.61983 0.27622,-0.15911 0.58279,-0.23813 0.92004,-0.23813 0.58738,0 1.0855,0.23037 1.49507,0.69074 0.41064,0.46038 0.61525,1.10208 0.61525,1.92476 0,0.8449 -0.20673,1.50177 -0.61948,1.97096 -0.41275,0.46779 -0.91334,0.70203 -1.50036,0.70203 -0.27976,0 -0.5334,-0.0557 -0.76024,-0.16651 -0.22789,-0.11112 -0.46708,-0.30233 -0.7179,-0.57256 v 2.55023 h -1.33879 z" style="fill:#428bca;fill-opacity:1;fill-rule:nonzero;stroke:none;stroke-width:0.352778" id="path1079"></path><path d="m 141.54575,193.97892 h 1.23366 v 0.69074 c 0.44203,-0.53693 0.96732,-0.80504 1.57798,-0.80504 0.32314,0 0.60501,0.0663 0.84243,0.19967 0.23848,0.13406 0.43427,0.33549 0.58667,0.60537 0.22225,-0.26988 0.46214,-0.47131 0.71932,-0.60537 0.25752,-0.13335 0.53163,-0.19967 0.82408,-0.19967 0.37148,0 0.68686,0.0748 0.94368,0.22578 0.25753,0.15134 0.4498,0.37288 0.57609,0.66498 0.0928,0.2159 0.13794,0.56551 0.13794,1.04775 v 3.23568 h -1.33844 v -2.89242 c 0,-0.50165 -0.0459,-0.8255 -0.13794,-0.97261 -0.12418,-0.18909 -0.31432,-0.28505 -0.57115,-0.28505 -0.18838,0 -0.36406,0.0571 -0.52916,0.17145 -0.16475,0.1136 -0.2854,0.28187 -0.35807,0.50271 -0.073,0.22049 -0.10936,0.56903 -0.10936,1.04564 v 2.43028 h -1.33879 v -2.77283 c 0,-0.49319 -0.0236,-0.81033 -0.0709,-0.95285 -0.049,-0.14359 -0.12206,-0.24942 -0.22261,-0.31997 -0.0995,-0.0699 -0.23565,-0.10443 -0.40675,-0.10443 -0.20637,0 -0.39264,0.055 -0.55809,0.16687 -0.16475,0.11077 -0.28328,0.27164 -0.35454,0.48083 -0.0716,0.20991 -0.1076,0.55775 -0.1076,1.04423 v 2.45815 h -1.33844 z" style="fill:#428bca;fill-opacity:1;fill-rule:nonzero;stroke:none;stroke-width:0.352778" id="path1083"></path><path d="m 153.32831,196.07509 c -0.009,-0.3877 -0.10971,-0.68227 -0.30021,-0.88336 -0.19015,-0.20214 -0.42228,-0.30303 -0.69568,-0.30303 -0.2921,0 -0.5334,0.10618 -0.7239,0.31891 -0.1905,0.21343 -0.28399,0.502 -0.28117,0.86748 z m -0.0762,1.3529 1.33421,0.22437 c -0.17075,0.4886 -0.44168,0.86113 -0.81245,1.1176 -0.37042,0.25541 -0.83291,0.38312 -1.38783,0.38312 -0.88018,0 -1.53141,-0.28717 -1.95474,-0.86255 -0.33302,-0.46072 -0.49918,-1.0414 -0.49918,-1.74342 0,-0.83891 0.21837,-1.49543 0.65687,-1.97062 0.43886,-0.47484 0.99272,-0.71191 1.663,-0.71191 0.75282,0 1.3469,0.24871 1.78258,0.74542 0.43427,0.49707 0.64241,1.25801 0.62336,2.28459 h -3.35456 c 0.01,0.39723 0.11782,0.70626 0.3242,0.92675 0.20673,0.22154 0.4639,0.33126 0.77223,0.33126 0.2092,0 0.38629,-0.0568 0.52881,-0.1711 0.14323,-0.11465 0.25048,-0.29845 0.3235,-0.55351" style="fill:#428bca;fill-opacity:1;fill-rule:nonzero;stroke:none;stroke-width:0.352778" id="path1087"></path><path d="m 160.35215,199.03874 h -1.3395 v -2.58269 c 0,-0.54574 -0.0286,-0.89887 -0.0854,-1.0608 -0.0579,-0.15945 -0.15028,-0.28434 -0.27834,-0.37324 -0.12912,-0.0896 -0.28399,-0.13335 -0.46531,-0.13335 -0.23213,0 -0.43992,0.0639 -0.62407,0.19086 -0.18415,0.127 -0.31044,0.29527 -0.37818,0.50447 -0.0691,0.21025 -0.10265,0.59725 -0.10265,1.16275 v 2.292 h -1.3388 v -5.05989 h 1.24319 v 0.74365 c 0.44062,-0.57185 0.99695,-0.85795 1.66794,-0.85795 0.29492,0 0.56409,0.0529 0.80962,0.15875 0.24483,0.10689 0.42933,0.24271 0.55457,0.40781 0.12594,0.1651 0.21343,0.35278 0.26246,0.56197 0.0494,0.21026 0.0744,0.51047 0.0744,0.90065 z" style="fill:#428bca;fill-opacity:1;fill-rule:nonzero;stroke:none;stroke-width:0.352778" id="path1091"></path><path d="m 164.03085,193.97892 v 1.06645 h -0.91581 v 2.03976 c 0,0.41275 0.009,0.65334 0.0265,0.72178 0.0162,0.0684 0.0571,0.12559 0.11888,0.16898 0.0617,0.0448 0.13723,0.0674 0.22613,0.0674 0.12489,0 0.30339,-0.043 0.5387,-0.12876 l 0.1143,1.03858 c -0.31115,0.13299 -0.66358,0.20002 -1.05728,0.20002 -0.242,0 -0.45932,-0.0406 -0.65299,-0.12135 -0.19368,-0.0808 -0.33655,-0.18627 -0.42651,-0.31468 -0.091,-0.12841 -0.15275,-0.30304 -0.18838,-0.52176 -0.0282,-0.15558 -0.042,-0.47025 -0.042,-0.94333 v -2.20662 h -0.61525 v -1.06645 h 0.61525 v -1.00612 l 1.34267,-0.78035 v 1.78647 z" style="fill:#428bca;fill-opacity:1;fill-rule:nonzero;stroke:none;stroke-width:0.352778" id="path1095"></path><path style="fill:#428b00;fill-opacity:0;stroke:#428bcf;stroke-width:0.00095447" d="m 503.03808,719.56756 c 5.78579,-2.71531 9.62604,-7.3297 11.24134,-13.50745 0.64384,-2.46237 0.68809,-7.11414 0.0951,-9.99885 -0.24116,-1.17315 -0.89904,-3.02292 -1.56894,-4.41138 -0.98549,-2.04256 -1.4894,-2.72545 -3.45719,-4.68519 -1.91462,-1.90679 -2.72992,-2.51201 -4.82892,-3.58464 -3.33702,-1.70529 -7.19883,-3.01098 -14.00955,-4.73666 -11.34043,-2.87342 -14.32223,-4.36648 -15.13044,-7.57616 -1.04586,-4.15349 2.92897,-7.19898 9.94709,-7.62142 2.83998,-0.17095 5.46787,0.1548 7.5582,0.93689 2.79635,1.04625 5.04147,3.92339 5.75419,7.37405 l 0.31202,1.51067 2.27917,-0.15369 c 1.25354,-0.0845 4.42133,-0.22926 7.03954,-0.32162 l 4.76037,-0.16793 -0.1651,-1.66598 c -0.202,-2.03848 -0.94953,-5.07508 -1.65383,-6.71813 -1.64919,-3.84742 -5.12493,-7.43878 -9.14087,-9.44495 l -2.57536,-1.28653 h 65.33115 65.33114 v 33.4613 33.4613 h -6.35261 -6.3526 l 1.49124,-0.9668 c 2.06437,-1.33838 4.11048,-3.64234 5.33257,-6.0046 0.98313,-1.90037 2.19986,-5.38061 1.96368,-5.61679 -0.11027,-0.11027 -9.60083,-1.80571 -10.11069,-1.80621 -0.14579,-1.5e-4 -0.51205,0.83917 -0.81389,1.86515 -1.09208,3.71196 -3.37811,5.51443 -6.97591,5.50033 -5.89639,-0.0231 -8.74487,-4.56552 -8.41969,-13.42666 0.20973,-5.71513 1.41993,-8.29969 4.62512,-9.8776 1.42093,-0.69952 1.94487,-0.82102 3.5995,-0.83465 3.47591,-0.0286 5.76684,1.60174 6.78376,4.82779 0.36455,1.15648 0.51127,1.34985 0.94872,1.25036 0.28461,-0.0647 2.61985,-0.48888 5.18943,-0.94254 2.56957,-0.45366 4.70665,-0.84921 4.74907,-0.87899 0.0424,-0.0298 -0.26929,-0.9524 -0.69267,-2.05026 -2.96423,-7.6865 -8.79035,-11.06448 -18.30227,-10.61164 -5.51488,0.26255 -8.99232,1.6926 -12.43199,5.11248 -1.70495,1.69515 -2.25662,2.45724 -3.23568,4.46982 -2.482,5.10204 -3.04088,12.64833 -1.38048,18.64009 1.16683,4.21063 4.24511,8.43525 7.5807,10.40371 l 1.60474,0.94701 h -7.36285 -7.36285 l -0.54678,-1.45209 c -1.27046,-3.37398 -1.34311,-4.23389 -1.39199,-16.47811 -0.0487,-12.19902 -0.16019,-13.51786 -1.33782,-15.82621 -1.19635,-2.34505 -4.41255,-4.45202 -8.11299,-5.31491 -2.75961,-0.64351 -10.95452,-0.63844 -13.71202,0.008 -5.1466,1.20741 -8.53838,4.29835 -10.28389,9.37178 -0.44145,1.28308 -0.44522,1.39303 -0.0517,1.50925 0.72077,0.21288 9.2002,1.68684 9.26638,1.61075 0.0343,-0.0394 0.34954,-0.63991 0.70054,-1.33439 1.31728,-2.60637 2.88096,-3.45518 6.3651,-3.45518 3.75032,0 5.30336,0.66905 6.21565,2.67771 0.25949,0.57137 0.47027,1.61548 0.47335,2.34484 l 0.006,1.31484 -1.99571,0.63045 c -1.09764,0.34674 -4.19439,1.08772 -6.88166,1.64663 -7.73964,1.60969 -10.47232,2.6974 -12.6644,5.04092 -2.60007,2.77969 -3.57753,6.87315 -2.56731,10.75162 0.66639,2.55844 2.00704,4.57567 4.15857,6.25722 l 0.88388,0.69081 -5.07026,0.003 -5.07026,0.003 -0.43618,-3.97017 c -0.2399,-2.18359 -0.46004,-3.99403 -0.48921,-4.0232 -0.0292,-0.0292 -0.84689,0.17248 -1.81717,0.44811 -2.17443,0.6177 -3.49614,0.4984 -4.39118,-0.39637 l -0.65596,-0.65575 -0.0709,-10.85361 -0.0709,-10.8536 h 3.54333 3.54332 v -4.29315 -4.29315 h -3.53553 -3.53554 v -6.9448 -6.9448 h -5.42957 -5.42957 v 6.9448 6.9448 h -2.39911 -2.39911 v 4.29315 4.29315 h 2.39911 2.39911 l 0.002,9.91212 c 0.003,14.44458 0.37139,17.27239 2.53225,19.44544 l 0.9417,0.94701 -13.03914,-0.009 -13.03913,-0.009 1.80158,-0.84549 z" id="path2182" transform="scale(0.26458333)"></path></g></svg> 